<svg width="40" height="40" viewBox="0 0 40 40" fill="none" xmlns="http://www.w3.org/2000/svg">
<rect width="40" height="40" rx="12" fill="url(#paint0_linear_631_5140)"/>
<path fill-rule="evenodd" clip-rule="evenodd" d="M8.00015 30.2922V10H11.5595L16.8328 16.1821L22.2303 10H26.449C28.6698 10.3402 30.5699 11.1794 31.3611 14.4598C31.5032 16.1888 31.2647 18.6057 28.6824 19.6873C30.1291 20.4426 32.277 21.9262 31.9704 25.2709C31.6589 27.4356 30.5651 29.4923 26.6661 30.3891L15.1267 30.3271V27.3182L25.5803 27.2873C27.3465 27.2118 28.5762 26.0303 28.4962 24.3093C28.4316 22.8371 27.5602 21.772 25.7975 21.3934H22.2923V18.4466C23.2332 18.4569 24.1741 18.4672 25.1151 18.4776C27.6745 17.9899 27.8648 16.5639 27.9378 15.7479C27.8267 13.8235 27.0103 13.2745 25.2056 13.0031C24.7731 12.9664 24.1737 13.1568 23.8122 13.5765L16.9569 21.1763L11.4974 15.1274L11.4353 30.3582L8 30.2923L8.00015 30.2922Z" fill="white"/>
<defs>
<linearGradient id="paint0_linear_631_5140" x1="0" y1="0" x2="40" y2="40" gradientUnits="userSpaceOnUse">
<stop stop-color="#7C3AED"/>
<stop offset="1" stop-color="#EC4899"/>
</linearGradient>
</defs>
</svg>
